# xmcd
#
# Track frame offsets:
#	150
#	14474
#	29311
#
# Disc length: 584 seconds
#
# Revision: 1
# Processed by: cddbd v1.5.2PL0 Copyright (c) Steve Scherf et al.
# Submitted via: EasyCDDAExtractor 10.2.0.1
#
DISCID=1a024603
DTITLE=Standing Tall - Radio Comp Vol.1
DYEAR=1996
DGENRE=Gospel
TTITLE0=Winner Either Way
TTITLE1=But For The Blood
TTITLE2=What A Prayer Can Do
EXTD=YEAR: 1996
EXTT0=
EXTT1=
EXTT2=
PLAYORDER=
